# xmcd
#
# Track frame offsets: 
#        182
#        17392
#        30257
#        45445
#        60457
#        76507
#        90157
#        104707
#        117382
#        133050
#
# Disc length: 1958 seconds
#
# Revision: 0
# Processed by: cddbd v1.5.2PL0 Copyright (c) Steve Scherf et al.
# Submitted via: ExactAudioCopy v0.99pb5
#
DISCID=6707a40a
DTITLE=Kamahl - After The Loving
DYEAR=1900
DGENRE=Oldies
TTITLE0=After The Loving
TTITLE1=Cold Cold Heart
TTITLE2=Take Good Care Of Her
TTITLE3=Warm Ways
TTITLE4=Let Me Try Again
TTITLE5=Our Love Song
TTITLE6=Let Me Be There
TTITLE7=When The Snow Is On The Roses
TTITLE8=Picking Up The Pieces Of My Life
TTITLE9=Before She Breaks My Heart
EXTD=
EXTT0=
EXTT1=
EXTT2=
EXTT3=
EXTT4=
EXTT5=
EXTT6=
EXTT7=
EXTT8=
EXTT9=
PLAYORDER=
